<?xml version="1.0"?>
<svg xmlns="http://www.w3.org/2000/svg" viewBox="0 0 64 64" width="512" height="512"><g id="flat"><polygon points="41 22 41 18 37 18 37 23 43 33 43 45 47 45 47 32 41 22" style="fill:#7d8d9c"/><path d="M39,10h0a2,2,0,0,1,2,2v6a0,0,0,0,1,0,0H37a0,0,0,0,1,0,0V12A2,2,0,0,1,39,10Z" style="fill:#2f3e4f"/><path d="M5,54H9a0,0,0,0,1,0,0v2a2,2,0,0,1-2,2H5a2,2,0,0,1-2-2v0A2,2,0,0,1,5,54Z" style="fill:#69b1d5"/><path d="M55,54h4a2,2,0,0,1,2,2v0a2,2,0,0,1-2,2H57a2,2,0,0,1-2-2V54A0,0,0,0,1,55,54Z" style="fill:#69b1d5"/><rect x="9" y="51" width="46" height="4" style="fill:#3b73a5"/><path d="M35,40c-6.789-3.017-14-5-18-5a8,8,0,0,0,0,16H51A60.41,60.41,0,0,0,35,40Z" style="fill:#cfdfe8"/><polygon points="55 51 51 51 51 15 55 11 55 51" style="fill:#7d8d9c"/><rect x="44.636" y="9.879" width="12.728" height="4.243" transform="translate(6.452 39.577) rotate(-45)" style="fill:#3b73a5"/><rect x="17" y="41" width="30" height="4" style="fill:#2f3e4f"/><circle cx="17" cy="43" r="8" style="fill:#7d8d9c"/><circle cx="17" cy="43" r="4" style="fill:#cfdfe8"/></g></svg>
